<?xml version="1.0" encoding="UTF-8" standalone="no"?>
<!DOCTYPE svg PUBLIC "-//W3C//DTD SVG 1.1//EN" "http://www.w3.org/Graphics/SVG/1.1/DTD/svg11.dtd">
<svg width="100%" height="100%" viewBox="0 0 2002 2002" version="1.1" xmlns="http://www.w3.org/2000/svg" xmlns:xlink="http://www.w3.org/1999/xlink" xml:space="preserve" xmlns:serif="http://www.serif.com/" style="fill-rule:evenodd;clip-rule:evenodd;stroke-linejoin:round;stroke-miterlimit:2;">
    <g id="Logo-Blue" serif:id="Logo Blue" transform="matrix(1,0,0,1,1,1)">
        <g id="F-Body" transform="matrix(1,0,0,1,14.105336,-10.5)">
            <path d="M902.566,637.86C910.411,639.582 916,646.531 916,654.562C916,719.597 916,996.243 916,1066.647C916,1070.984 917.723,1075.144 920.79,1078.21C923.856,1081.277 928.016,1083 932.353,1083C1004.185,1083 1291.47,1083 1366.173,1083C1370.934,1083 1375.486,1084.95 1378.771,1088.396C1382.055,1091.842 1383.785,1096.483 1383.556,1101.238C1377.321,1228.546 1308.215,1329 1224,1329L932.353,1329C923.321,1329 916,1336.321 916,1345.353C916,1402.351 916,1593.746 916,1685.116C916,1715.658 932.285,1743.883 958.727,1759.169C985.067,1774.396 1019.567,1794.339 1050.269,1812.088C1059.279,1817.297 1063.669,1827.907 1060.972,1837.959C1058.276,1848.011 1049.165,1855 1038.758,1855C891.938,1855 594.062,1855 447.242,1855C436.835,1855 427.724,1848.011 425.028,1837.959C422.331,1827.907 426.721,1817.297 435.731,1812.088C468.321,1793.248 505.418,1771.803 533.273,1755.7C559.715,1740.414 576,1712.189 576,1681.647C576,1485.563 576,767.431 576,668.411C576,661.464 580.203,655.207 586.635,652.58C601.032,646.767 615.947,641.662 631.756,637.324C666.348,627.832 705.222,622.014 752.288,620.395C809.2,618.438 851.797,626.742 900.121,637.324C900.934,637.502 901.749,637.681 902.566,637.86Z" style="fill:rgb(30,55,83);"/>
        </g>
        <g id="Hat" transform="matrix(1,0,0,1,28.085923,-145.517973)">
            <g transform="matrix(-1.002823,0,0,1,1920.587686,80)">
                <path d="M1563.78,712.999C1562.961,717.446 1559.624,721.001 1555.247,722.09C1550.871,723.179 1546.264,721.6 1543.467,718.053C1468.242,625.538 1329.593,565.203 1211.86,548.996C1064.501,528.711 920.104,585.304 844.161,591.401C665.059,605.78 424.624,597.633 332.749,568.394C300.696,558.192 309.334,516.006 324,505C345.498,488.866 484.462,387.396 640.087,321.388C829.235,241.161 1022.995,210.789 1157,224C1309.334,239.018 1499.117,312.869 1560.076,463C1597.485,555.132 1576.186,649.504 1563.78,712.999Z" style="fill:rgb(30,55,83);"/>
            </g>
            <g transform="matrix(-1.002823,0,0,1,1923.607098,69.783928)">
                <path d="M314.642,625.189C313.281,622.063 313.733,618.442 315.82,615.749C317.907,613.056 321.295,611.723 324.651,612.274C462.476,634.921 580.333,651.992 701,652C968.658,652.017 1021.726,594.162 1162,599C1287.402,603.325 1354.483,637.631 1437.62,691.876C1439.939,693.379 1440.814,696.356 1439.678,698.88C1438.542,701.404 1435.737,702.715 1433.079,701.965C1320.035,669.811 1236.941,650.01 1163.927,650.509C1078.977,651.089 1007.554,677.965 914,700C788.432,729.576 645.279,720.242 564,713C488.817,706.301 340.56,684.534 314.642,625.189Z" style="fill:rgb(30,55,83);"/>
            </g>
        </g>
    </g>
</svg>
